<svg width="30" height="44" viewBox="0 0 30 44" fill="none" xmlns="http://www.w3.org/2000/svg">
<g clip-path="url(#clip0_38_858)">
<path d="M27.9669 16.5917C28.3928 14.9952 28.3928 13.4076 28.0484 11.8111C26.2722 4.60001 18.9769 0.0706298 11.6906 1.74785C5.59156 3.17393 1.18719 8.62712 1.26875 14.9144C1.26875 14.9144 5.76375 10.3043 10.4219 14.9144C10.4219 14.9144 13.9834 9.96352 19.6566 14.9144C19.6566 14.9144 24.7406 10.8873 27.9669 16.5917Z" fill="#16A085" stroke="#16A085" stroke-width="2.5666" stroke-linecap="round" stroke-linejoin="round"/>
<path fillRule="evenodd" clipRule="evenodd" d="M28.719 15.5871C29.2809 15.9997 29.3987 16.789 28.9818 17.3451L18.6415 31.0946C18.2246 31.6507 17.4271 31.7673 16.8653 31.3547C16.3034 30.9422 16.1856 30.1529 16.6024 29.5968L26.9428 15.8472C27.3596 15.2822 28.1571 15.1745 28.719 15.5871Z" fill="#16A085"/>
<path fillRule="evenodd" clipRule="evenodd" d="M19.9828 13.7036C20.6625 13.8829 21.0703 14.5646 20.8891 15.2373L16.9106 30.2515C16.7294 30.9242 16.0406 31.3278 15.3609 31.1484C14.6812 30.969 14.2734 30.2874 14.4547 29.6147L18.4331 14.6005C18.6053 13.9278 19.3031 13.5242 19.9828 13.7036Z" fill="#16A085"/>
<path fillRule="evenodd" clipRule="evenodd" d="M10.0503 13.6946C10.739 13.5422 11.4187 13.9637 11.5728 14.6364L15.0437 29.6506C15.1978 30.3323 14.7718 31.0049 14.0921 31.1574C13.4034 31.3099 12.7237 30.8883 12.5696 30.2157L9.0987 15.2014C8.94464 14.5198 9.37058 13.8471 10.0503 13.6946Z" fill="#16A085"/>
<path fillRule="evenodd" clipRule="evenodd" d="M0.552797 13.874C1.1328 13.4794 1.92123 13.6319 2.31998 14.2059L12.914 29.6327C13.3128 30.2067 13.1587 30.987 12.5787 31.3816C11.9987 31.7763 11.2103 31.6238 10.8115 31.0498L0.217485 15.623C-0.172203 15.049 -0.0272028 14.2687 0.552797 13.874Z" fill="#16A085"/>
<path d="M11.0381 36.0904H8.28307C7.00526 36.0904 5.96307 35.0589 5.96307 33.7943V29.8748C5.96307 28.6102 7.00526 27.5787 8.28307 27.5787H11.0381C12.3159 27.5787 13.3581 28.6102 13.3581 29.8748V33.7943C13.3581 35.05 12.3159 36.0904 11.0381 36.0904Z" fill="#16A085"/>
<path d="M20.9524 36.0904H18.1974C16.9196 36.0904 15.8774 35.0589 15.8774 33.7943V29.8748C15.8774 28.6102 16.9196 27.5787 18.1974 27.5787H20.9524C22.2302 27.5787 23.2724 28.6102 23.2724 29.8748V33.7943C23.2724 35.05 22.2302 36.0904 20.9524 36.0904Z" fill="#16A085"/>
<path d="M21.7137 32.3952V33.7854C21.7137 35.0501 20.6716 36.0815 19.3937 36.0815H10.4219C9.14406 36.0815 8.10187 35.0501 8.10187 33.7854V32.3952C8.10187 31.1306 9.14406 30.0991 10.4219 30.0991H19.3937C20.6716 30.0991 21.7137 31.1306 21.7137 32.3952Z" fill="#16A085"/>
<path d="M21.6865 43.7499H7.54901C6.66995 43.7499 5.96307 43.0414 5.96307 42.1803V40.3417C5.96307 39.4717 6.67901 38.7721 7.54901 38.7721H21.6865C22.5656 38.7721 23.2724 39.4807 23.2724 40.3417V42.1803C23.2724 43.0414 22.5565 43.7499 21.6865 43.7499Z" fill="#16A085"/>
</g>
<defs>
<clipPath id="clip0_38_858">
<rect width="29.4531" height="43.5" fill="white" transform="translate(0 0.25)"/>
</clipPath>
</defs>
</svg>
