<svg width="42" height="42" viewBox="0 0 42 42" fill="none" xmlns="http://www.w3.org/2000/svg">
<path fill-rule="evenodd" clip-rule="evenodd" d="M36.2069 3.62069H5.7931C4.59331 3.62069 3.62069 4.59331 3.62069 5.7931V36.2069C3.62069 37.4067 4.59331 38.3793 5.7931 38.3793H36.2069C37.4067 38.3793 38.3793 37.4067 38.3793 36.2069V5.7931C38.3793 4.59331 37.4067 3.62069 36.2069 3.62069ZM5.7931 0C2.59366 0 0 2.59366 0 5.7931V36.2069C0 39.4063 2.59366 42 5.7931 42H36.2069C39.4063 42 42 39.4063 42 36.2069V5.7931C42 2.59366 39.4063 0 36.2069 0H5.7931Z" fill="#16A085"/>
<path d="M17.7179 28.24C15.7179 28.24 14.1579 27.6867 13.0379 26.58C11.9313 25.4733 11.3779 23.8933 11.3779 21.84V15.62C11.3779 14.7253 12.1032 14 12.9979 14V14C13.8926 14 14.6179 14.7253 14.6179 15.62V21.72C14.6179 24.2267 15.6579 25.48 17.7379 25.48C18.7513 25.48 19.5246 25.18 20.0579 24.58C20.5913 23.9667 20.8579 23.0133 20.8579 21.72V15.6C20.8579 14.7163 21.5743 14 22.4579 14V14C23.3416 14 24.0579 14.7163 24.0579 15.6V21.84C24.0579 23.8933 23.4979 25.4733 22.3779 26.58C21.2713 27.6867 19.7179 28.24 17.7179 28.24Z" fill="#16A085"/>
<path d="M27.2596 15.62C27.2596 14.7253 27.9849 14 28.8796 14V14C29.7743 14 30.4996 14.7253 30.4996 15.62V26.38C30.4996 27.2747 29.7743 28 28.8796 28V28C27.9849 28 27.2596 27.2747 27.2596 26.38V15.62Z" fill="#16A085"/>
</svg>
