<svg width="48" height="48" viewBox="0 0 48 48" fill="none" xmlns="http://www.w3.org/2000/svg">
<g clip-path="url(#clip0_522_5156)">
<circle cx="23.5" cy="23.5" r="7.5" fill="#E5E5FA"/>
<path d="M24 14.1562C18.5722 14.1562 14.1562 18.5722 14.1562 24C14.1562 29.4278 18.5722 33.8438 24 33.8438C29.4278 33.8438 33.8438 29.4278 33.8438 24C33.8438 18.5722 29.4278 14.1562 24 14.1562ZM24 30.5625C20.3814 30.5625 17.4375 27.6186 17.4375 24C17.4375 20.3814 20.3814 17.4375 24 17.4375C27.6186 17.4375 30.5625 20.3814 30.5625 24C30.5625 27.6186 27.6186 30.5625 24 30.5625Z" fill="#16A085"/>
<path d="M27 24.8883C27 25.4117 26.7938 25.8617 26.3814 26.2383C25.9691 26.6085 25.3746 26.8383 24.5979 26.9277V28H23.567V26.9564C23.0584 26.9309 22.5739 26.8479 22.1134 26.7074C21.6529 26.567 21.2818 26.3947 21 26.1904L21.567 25.0223C21.8282 25.2011 22.134 25.3511 22.4845 25.4723C22.8351 25.5936 23.1959 25.6702 23.567 25.7021V24.1032C23.079 23.9947 22.6667 23.8734 22.3299 23.7394C21.9931 23.6053 21.7113 23.4106 21.4845 23.1553C21.2577 22.8936 21.1443 22.5489 21.1443 22.1213C21.1443 21.5915 21.3505 21.1383 21.7629 20.7617C22.1821 20.3787 22.7835 20.1457 23.567 20.0628V19H24.5979V20.0436C25.4433 20.1074 26.1409 20.3021 26.6907 20.6277L26.1753 21.8053C25.6598 21.5309 25.134 21.3649 24.5979 21.3074V22.9351C25.079 23.0372 25.4845 23.1553 25.8144 23.2894C26.1512 23.417 26.433 23.6117 26.6598 23.8734C26.8866 24.1287 27 24.467 27 24.8883ZM22.8041 22.0447C22.8041 22.2043 22.8694 22.3351 23 22.4372C23.1306 22.5394 23.3196 22.6255 23.567 22.6957V21.3362C23.3058 21.3936 23.1134 21.4862 22.9897 21.6138C22.866 21.7351 22.8041 21.8787 22.8041 22.0447ZM24.5979 25.6638C24.8454 25.6128 25.0309 25.5298 25.1546 25.4149C25.2784 25.3 25.3402 25.1628 25.3402 25.0032C25.3402 24.8436 25.2749 24.7128 25.1443 24.6106C25.0206 24.5085 24.8385 24.4191 24.5979 24.3426V25.6638Z" fill="#16A085"/>
<path d="M42 28.5938C43.6569 28.5938 45 27.2506 45 25.5938V22.4062C45 20.7494 43.6569 19.4062 42 19.4062H39.3788C39.0652 18.3641 38.6422 17.3528 38.1142 16.3824L40.6834 13.8133C41.4644 13.0322 41.4644 11.7659 40.6834 10.9848L37.7223 8.02375C36.5507 6.85218 34.6512 6.85218 33.4796 8.02375L31.6176 9.88579C30.6474 9.35791 29.6359 8.93488 28.5938 8.62119V6C28.5938 4.34315 27.2506 3 25.5938 3H22.4062C20.7494 3 19.4062 4.34315 19.4062 6V8.62119C18.364 8.93488 17.3527 9.35775 16.3824 9.8857L14.5204 8.02367C13.3488 6.85209 11.4493 6.8521 10.2777 8.02367L8.02375 10.2777C6.85218 11.4492 6.85218 13.3487 8.02375 14.5203L9.88579 16.3823C9.35783 17.3527 8.93488 18.3641 8.62119 19.4062H6C4.34315 19.4062 3 20.7494 3 22.4062V25.5938C3 27.2506 4.34315 28.5938 6 28.5938H8.62119C8.9348 29.6359 9.35783 30.6472 9.88579 31.6176L8.02374 33.4796C6.85217 34.6512 6.85216 36.5507 8.02372 37.7223L10.2777 39.9763C11.4493 41.1479 13.3488 41.1479 14.5204 39.9763L16.3824 38.1143C17.3527 38.6423 18.364 39.0651 19.4062 39.3788V42C19.4062 43.6569 20.7494 45 22.4062 45H25.5938C27.2506 45 28.5938 43.6569 28.5938 42V39.3788C29.636 39.0651 30.6473 38.6423 31.6176 38.1143L33.4796 39.9763C34.6512 41.1479 36.5507 41.1479 37.7223 39.9763L39.9763 37.7223C41.1478 36.5507 41.1478 34.6512 39.9763 33.4796L38.1142 31.6176C38.6422 30.6473 39.0651 29.6359 39.3788 28.5938H42ZM36.7501 34.8938C37.1406 35.2844 37.1406 35.9175 36.7501 36.308L36.3081 36.7501C35.9175 37.1406 35.2844 37.1406 34.8938 36.7501L32.1097 33.9659L30.7797 34.8037C29.5463 35.5807 28.2217 36.1346 26.8425 36.4498L25.3125 36.7997V40.7188C25.3125 41.271 24.8648 41.7188 24.3125 41.7188H23.6875C23.1352 41.7188 22.6875 41.271 22.6875 40.7188V36.7997L21.1575 36.4499C19.7784 36.1346 18.4538 35.5808 17.2203 34.8038L15.8903 33.966L13.1062 36.7502C12.7157 37.1407 12.0825 37.1407 11.6919 36.7502L11.2498 36.308C10.8593 35.9175 10.8593 35.2844 11.2499 34.8939L14.0342 32.1095L13.1962 30.7796C12.4192 29.5461 11.8654 28.2215 11.5501 26.8425L11.2005 25.3125H7.28125C6.72897 25.3125 6.28125 24.8648 6.28125 24.3125V23.6875C6.28125 23.1352 6.72897 22.6875 7.28125 22.6875H11.2005L11.5502 21.1575C11.8654 19.7785 12.4193 18.4539 13.1962 17.2205L14.0342 15.8905L11.2499 13.1062C10.8594 12.7156 10.8594 12.0825 11.2499 11.692L11.692 11.2499C12.0825 10.8594 12.7156 10.8594 13.1062 11.2499L15.8903 14.034L17.2203 13.1962C18.4537 12.4192 19.7783 11.8654 21.1575 11.5501L22.6875 11.2003V7.28125C22.6875 6.72897 23.1352 6.28125 23.6875 6.28125H24.3125C24.8648 6.28125 25.3125 6.72897 25.3125 7.28125V11.2003L26.8425 11.5501C28.2216 11.8654 29.5463 12.4192 30.7797 13.1962L32.1097 14.034L34.8938 11.2499C35.2844 10.8594 35.9175 10.8594 36.308 11.2499L36.7501 11.692C37.1406 12.0825 37.1406 12.7156 36.7501 13.1062L33.9658 15.8905L34.8038 17.2204C35.5808 18.4539 36.1346 19.7785 36.4499 21.1575L36.7995 22.6875H40.7188C41.271 22.6875 41.7188 23.1352 41.7188 23.6875V24.3125C41.7188 24.8648 41.271 25.3125 40.7188 25.3125H36.7995L36.4498 26.8425C36.1346 28.2215 35.5807 29.5461 34.8038 30.7795L33.9658 32.1095L36.7501 34.8938Z" fill="#16A085"/>
</g>
<defs>
<clipPath id="clip0_522_5156">
<rect width="42" height="42" fill="white" transform="translate(3 3)"/>
</clipPath>
</defs>
</svg>
