<svg width="40" height="42" viewBox="0 0 40 42" fill="none" xmlns="http://www.w3.org/2000/svg">
<rect x="32.502" y="17.1539" width="4.51419" height="21.6681" fill="#E5E5FA"/>
<path d="M39.788 19.1943V37.0795C39.788 39.6797 37.7476 41.8194 35.1836 41.991V42H4.92046C2.20292 41.991 0 39.788 0 37.0705V4.92046C0 2.20292 2.20292 0 4.92046 0H28.3762C31.0937 0 33.2966 2.20292 33.2966 4.92046V14.2739H34.8586C37.5761 14.2739 39.788 16.4768 39.788 19.1943ZM30.2992 38.7137C30.1187 38.1991 30.0193 37.6483 30.0193 37.0705V4.92046C30.0193 4.01763 29.279 3.2773 28.3762 3.2773H4.92046C4.01763 3.2773 3.2773 4.01763 3.2773 4.92046V37.0705C3.2773 37.9733 4.01763 38.7137 4.92046 38.7137H30.2992ZM36.5017 19.1943C36.5017 18.2915 35.7614 17.5512 34.8586 17.5512H33.2966V37.0705C33.2966 37.9643 34.0099 38.6866 34.8947 38.7137C35.7795 38.6956 36.5017 37.9643 36.5017 37.0705V19.1943Z" fill="#16A085"/>
<path d="M18.5898 16.4136H7.47587C6.76263 16.4136 6.17578 15.8267 6.17578 15.1135V8.82975C6.17578 8.11651 6.76263 7.52966 7.47587 7.52966H18.5988C19.3121 7.52966 19.8989 8.11651 19.8989 8.82975V15.1135C19.8899 15.8267 19.3121 16.4136 18.5898 16.4136Z" fill="#16A085"/>
<path d="M6.28418 24.7738H27.3022" stroke="#16A085" stroke-width="2.0074" stroke-miterlimit="10" stroke-linecap="round" stroke-linejoin="round"/>
<path d="M6.28418 19.4923H27.3022" stroke="#16A085" stroke-width="2.0074" stroke-miterlimit="10" stroke-linecap="round" stroke-linejoin="round"/>
<path d="M6.28418 30.218H27.3022" stroke="#16A085" stroke-width="2.0074" stroke-miterlimit="10" stroke-linecap="round" stroke-linejoin="round"/>
<path d="M6.28418 35.3912H27.3022" stroke="#16A085" stroke-width="2.0074" stroke-miterlimit="10" stroke-linecap="round" stroke-linejoin="round"/>
</svg>
